<?xml version="1.0" encoding="UTF-8" standalone="no"?>
<!-- Created with Inkscape (http://www.inkscape.org/) -->

<svg
   xmlns:dc="http://purl.org/dc/elements/1.1/"
   xmlns:cc="http://creativecommons.org/ns#"
   xmlns:rdf="http://www.w3.org/1999/02/22-rdf-syntax-ns#"
   xmlns:svg="http://www.w3.org/2000/svg"
   xmlns="http://www.w3.org/2000/svg"
   xmlns:sodipodi="http://sodipodi.sourceforge.net/DTD/sodipodi-0.dtd"
   xmlns:inkscape="http://www.inkscape.org/namespaces/inkscape"
   width="165"
   height="165"
   viewBox="0 0 165 165"
   id="svg4427"
   version="1.1"
   inkscape:version="0.91 r13725"
   sodipodi:docname="INTPRN_icon_03a.svg">
  <defs
     id="defs4429" />
  <sodipodi:namedview
     id="base"
     pagecolor="#ffffff"
     bordercolor="#666666"
     borderopacity="1.0"
     inkscape:pageopacity="0.0"
     inkscape:pageshadow="2"
     inkscape:zoom="2.0153226"
     inkscape:cx="141.42857"
     inkscape:cy="22.857143"
     inkscape:document-units="px"
     inkscape:current-layer="layer1"
     showgrid="false"
     units="px"
     inkscape:window-width="1600"
     inkscape:window-height="880"
     inkscape:window-x="-4"
     inkscape:window-y="-4"
     inkscape:window-maximized="1" />
  <metadata
     id="metadata4432">
    <rdf:RDF>
      <cc:Work
         rdf:about="">
        <dc:format>image/svg+xml</dc:format>
        <dc:type
           rdf:resource="http://purl.org/dc/dcmitype/StillImage" />
        <dc:title></dc:title>
      </cc:Work>
    </rdf:RDF>
  </metadata>
  <g
     inkscape:label="Ebene 1"
     inkscape:groupmode="layer"
     id="layer1"
     transform="translate(0,-887.36216)">
    <g
       id="g5021"
       transform="translate(-367.06683,600.40817)">
      <path
         inkscape:export-ydpi="599.85492"
         inkscape:export-xdpi="599.85492"
         sodipodi:nodetypes="ccccc"
         d="m 475.17462,378.72884 -1.70473,-89.57574 42.815,5.3567 0.41575,90.89017 z"
         style="opacity:1;fill:#ffffff;fill-opacity:1;fill-rule:evenodd;stroke:#4d4d4d;stroke-width:2.97411275;stroke-linecap:butt;stroke-linejoin:round;stroke-miterlimit:4;stroke-dasharray:none;stroke-opacity:1"
         id="path3552-4-7-6-3-4-5"
         inkscape:connector-curvature="0" />
      <path
         inkscape:export-ydpi="599.85492"
         inkscape:export-xdpi="599.85492"
         sodipodi:nodetypes="ccccc"
         d="m 475.45184,378.3459 -95.00962,14.35327 0.37425,-82.79189 95.04441,-21.13505 z"
         style="opacity:1;fill:#ffffff;fill-opacity:1;fill-rule:evenodd;stroke:#4d4d4d;stroke-width:2.97411275;stroke-linecap:butt;stroke-linejoin:round;stroke-miterlimit:4;stroke-dasharray:none;stroke-opacity:1"
         id="path3554-3-7-89-8-3-7"
         inkscape:connector-curvature="0" />
      <path
         inkscape:export-ydpi="599.85492"
         inkscape:export-xdpi="599.85492"
         sodipodi:nodetypes="ccccc"
         d="m 516.23563,385.63492 -88.40383,13.62006 -46.85742,-6.42787 94.40963,-14.31327 z"
         style="opacity:1;fill:#ffffff;fill-opacity:1;fill-rule:evenodd;stroke:#4d4d4d;stroke-width:2.97411275;stroke-linecap:butt;stroke-linejoin:round;stroke-miterlimit:4;stroke-dasharray:none;stroke-opacity:1"
         id="path3554-3-2-86-6-2-4-0"
         inkscape:connector-curvature="0" />
      <path
         inkscape:export-ydpi="599.85492"
         inkscape:export-xdpi="599.85492"
         sodipodi:nodetypes="ccccc"
         d="m 480.25461,386.91041 -43.55619,5.31358 -12.00311,-1.31262 39.20516,-5.5841 z"
         style="opacity:1;fill:#ffffff;fill-opacity:1;fill-rule:evenodd;stroke:#4d4d4d;stroke-width:2.97411275;stroke-linecap:butt;stroke-linejoin:round;stroke-miterlimit:4;stroke-dasharray:none;stroke-opacity:1"
         id="path3554-3-2-8-6-5-6-8-2"
         inkscape:connector-curvature="0" />
      <ellipse
         inkscape:export-ydpi="599.85492"
         inkscape:export-xdpi="599.85492"
         ry="19.703773"
         rx="16.420492"
         cy="341.73349"
         cx="424.11325"
         id="path3723-0-8-2-7-2-8-5"
         style="opacity:1;fill:#ffffff;fill-opacity:1;stroke:#4d4d4d;stroke-width:2.97411275;stroke-miterlimit:4;stroke-dasharray:none;stroke-opacity:1" />
      <path
         inkscape:export-ydpi="599.85492"
         inkscape:export-xdpi="599.85492"
         sodipodi:nodetypes="cccccccccccccccccccccccccccccccccccccscccccccccccccccccccccccccccccc"
         inkscape:connector-curvature="0"
         id="path3794-0-50-1-0-1"
         d="m 417.04188,331.53251 0,0.1144 c 0.19511,0 0.38996,0.0164 0.58416,0.044 0.21905,0.0336 0.4368,0.0836 0.6525,0.14958 0.21531,0.0664 0.42831,0.14828 0.63808,0.24647 0.21017,0.0984 0.41698,0.21268 0.61955,0.34242 0.20296,0.12983 0.40141,0.27492 0.59472,0.43475 0.19278,0.15957 0.3803,0.33363 0.56176,0.52156 0.18146,0.18811 0.35662,0.38993 0.52483,0.60459 0.16834,0.2144 0.32947,0.44147 0.48287,0.68027 0.15328,0.23871 0.29858,0.48889 0.43539,0.7495 0.13693,0.26096 0.26511,0.532 0.38416,0.81235 0.1184,0.28009 0.22792,0.56906 0.32754,0.86579 0.10038,0.29699 0.18995,0.6014 0.26975,0.91201 0.0798,0.31018 0.14903,0.6263 0.20784,0.947 0.0592,0.32078 0.10682,0.64579 0.14479,0.97382 0.0373,0.32828 0.0631,0.65915 0.0785,0.9914 0.0129,0.235 0.0167,0.47053 0.0167,0.70614 -3.8e-4,0.33293 -0.0129,0.66561 -0.0347,0.99691 -0.0219,0.33148 -0.0553,0.66114 -0.0991,0.98761 -0.0438,0.32639 -0.0978,0.64924 -0.16306,0.96735 -0.0656,0.3182 -0.14067,0.63114 -0.22625,0.93787 -0.0862,0.30673 -0.18147,0.60682 -0.28687,0.89907 -0.10553,0.29216 -0.22046,0.57622 -0.34465,0.85106 -0.12484,0.27483 -0.25791,0.54009 -0.39999,0.79475 -0.14131,0.25449 -0.29112,0.49821 -0.44852,0.73011 -0.15804,0.23207 -0.32354,0.45199 -0.496,0.65906 -0.17245,0.20699 -0.35147,0.4007 -0.53679,0.58062 -0.18507,0.17983 -0.37619,0.34561 -0.57219,0.49656 -0.19588,0.15113 -0.39652,0.28725 -0.60128,0.40803 -0.20514,0.12069 -0.41415,0.2257 -0.62624,0.31475 -0.21184,0.0891 -0.42663,0.16216 -0.64323,0.2188 -0.16023,0.0388 -0.32123,0.0681 -0.48288,0.0886 l 7.9295,-1.42615 0.26448,-0.0416 c 0.1619,-0.0164 0.32341,-0.0414 0.48416,-0.0741 0.21737,-0.0474 0.43294,-0.10957 0.64593,-0.18552 0.21312,-0.0759 0.42342,-0.16535 0.6301,-0.26862 0.20631,-0.10302 0.40875,-0.21949 0.60643,-0.34889 0.19768,-0.12983 0.39047,-0.27242 0.57759,-0.42734 0.18764,-0.15457 0.36936,-0.32121 0.54465,-0.49941 0.1749,-0.17854 0.34311,-0.36828 0.50385,-0.56854 0.16036,-0.19992 0.31325,-0.41001 0.45778,-0.62959 0.14543,-0.21992 0.28236,-0.44915 0.41042,-0.68674 0.12741,-0.2375 0.2462,-0.48303 0.35533,-0.7357 0.10939,-0.25285 0.20888,-0.51252 0.29858,-0.77812 0.0901,-0.26527 0.16898,-0.53605 0.23809,-0.81132 0.0695,-0.27561 0.12741,-0.55535 0.1749,-0.83812 0.0476,-0.28311 0.0849,-0.56906 0.11197,-0.85666 0.0257,-0.28699 0.0412,-0.57535 0.045,-0.86398 0,-0.2044 2.6e-4,-0.40889 -0.0129,-0.61286 -0.0129,-0.28828 -0.0335,-0.57536 -0.0656,-0.86028 -0.0335,-0.28483 -0.0785,-0.56699 -0.13295,-0.84554 -0.0541,-0.27879 -0.11969,-0.55354 -0.19601,-0.82338 -0.0759,-0.26992 -0.16177,-0.53458 -0.25778,-0.79286 -0.0965,-0.25802 -0.20179,-0.50949 -0.31711,-0.75329 -0.11583,-0.24389 -0.24002,-0.47984 -0.37361,-0.707 -0.13359,-0.22725 -0.2758,-0.44536 -0.42624,-0.65355 -0.15007,-0.20785 -0.30823,-0.4057 -0.47348,-0.5926 -0.16551,-0.18759 -0.33796,-0.36415 -0.51711,-0.52889 -0.17902,-0.16414 -0.36434,-0.3163 -0.55507,-0.45605 -0.19138,-0.13991 -0.38815,-0.26716 -0.58944,-0.38121 -0.20115,-0.11406 -0.40668,-0.21483 -0.61569,-0.30182 -0.20887,-0.0865 -0.42084,-0.15923 -0.63551,-0.21785 -0.21466,-0.0586 -0.43152,-0.10345 -0.64979,-0.13379 -0.19395,-0.0259 -0.43152,-0.12001 -0.62676,-0.12311 l 0.0206,0 z"
         style="opacity:1;fill:#ffffff;fill-opacity:1;fill-rule:evenodd;stroke:#4d4d4d;stroke-width:2.97411275;stroke-linecap:butt;stroke-linejoin:round;stroke-miterlimit:4;stroke-dasharray:none;stroke-opacity:1" />
      <ellipse
         inkscape:export-ydpi="599.85492"
         inkscape:export-xdpi="599.85492"
         ry="10.119639"
         rx="6.5981627"
         cy="341.6777"
         cx="416.10504"
         id="path3723-0-5-4-4-9-8"
         style="opacity:1;fill:#4d4d4d;fill-opacity:1;stroke:#4d4d4d;stroke-width:2.97411275;stroke-miterlimit:4;stroke-dasharray:none;stroke-opacity:1" />
      <path
         inkscape:export-ydpi="599.85492"
         inkscape:export-xdpi="599.85492"
         sodipodi:nodetypes="cssssssscccccccccsssssscsccccccc"
         d="m 470.93358,386.68788 0.28288,2.97257 c 0.25868,2.71144 -1.13871,5.70384 0.66048,8.1389 2.62582,3.55387 8.06858,3.92595 8.37308,7.88604 0.30321,3.93879 -7.02961,4.44777 -7.05226,8.39183 -0.0206,3.56844 5.52512,4.40656 5.80222,7.97027 0.2758,3.54482 -2.9257,4.91433 -4.48127,8.30751 -1.19083,2.5973 -1.0252,5.66763 0.66035,8.13889 2.23612,3.27853 11.61163,7.51207 11.61163,7.51207 l -4.08409,0.52898 -4.08423,0.52898 -4.08409,0.52898 -4.08409,0.52897 -4.08422,0.52907 -4.08409,0.52897 -4.08422,0.52898 -4.08397,0.52898 c 0,0 -9.5325,-4.21061 -11.87802,-7.49896 -1.74848,-2.4511 -2.05208,-5.51539 -0.92971,-8.12579 1.45017,-3.37284 4.55217,-4.79175 4.21189,-8.29433 -0.34929,-3.59922 -6.02923,-4.35053 -6.07144,-7.95716 -0.045,-3.89949 7.14323,-4.48657 6.78301,-8.37864 -0.37091,-4.00079 -5.90053,-4.30993 -8.64243,-7.87286 -1.85827,-2.41462 -1.53807,-8.52812 -1.84784,-11.23672 -0.14749,0.39717 -1.31285,0.34889 0.12097,-0.044 1.43292,-0.39303 6.22163,-0.55898 8.83754,-0.88477 l 4.46761,-0.54596 4.35294,-0.54208 4.35307,-0.54217 4.35307,-0.54208 4.35307,-0.54217 4.35307,-0.54209"
         style="opacity:1;fill:#ffffff;fill-opacity:1;fill-rule:evenodd;stroke:#4d4d4d;stroke-width:2.97411275;stroke-linecap:butt;stroke-linejoin:round;stroke-miterlimit:4;stroke-dasharray:none;stroke-opacity:1"
         id="path3554-3-2-8-1-9-3-8-3-3-0-4-9-6"
         inkscape:connector-curvature="0" />
      <path
         inkscape:export-ydpi="599.85492"
         inkscape:export-xdpi="599.85492"
         sodipodi:nodetypes="cc"
         inkscape:connector-curvature="0"
         id="path3661-8-54-9-8-5-5-6-3-8-5-1"
         d="m 450.25959,441.71709 c 12.13245,-1.91315 20.81941,-2.91783 20.81941,-2.91783"
         style="opacity:1;fill:none;fill-rule:evenodd;stroke:#4d4d4d;stroke-width:1.5;stroke-linecap:round;stroke-linejoin:miter;stroke-miterlimit:4;stroke-dasharray:none;stroke-opacity:1" />
      <path
         inkscape:export-ydpi="599.85492"
         inkscape:export-xdpi="599.85492"
         sodipodi:nodetypes="cc"
         inkscape:connector-curvature="0"
         id="path3661-8-5-2-0-4-0-7-1-2-7-5-1"
         d="m 446.43032,439.0441 c 26.28058,-4.18544 24.07321,-3.84572 24.07321,-3.84572"
         style="opacity:1;fill:none;fill-rule:evenodd;stroke:#4d4d4d;stroke-width:1.5;stroke-linecap:round;stroke-linejoin:miter;stroke-miterlimit:4;stroke-dasharray:none;stroke-opacity:1" />
      <path
         inkscape:export-ydpi="599.85492"
         inkscape:export-xdpi="599.85492"
         inkscape:connector-curvature="0"
         id="path3661-8-5-3-5-9-7-00-7-6-13-4-3-9"
         d="m 444.69139,435.46489 c 26.3713,-3.82078 26.37401,-3.69328 26.37401,-3.69328"
         style="opacity:1;fill:none;fill-rule:evenodd;stroke:#4d4d4d;stroke-width:1.5;stroke-linecap:round;stroke-linejoin:miter;stroke-miterlimit:4;stroke-dasharray:none;stroke-opacity:1" />
      <path
         inkscape:export-ydpi="599.85492"
         inkscape:export-xdpi="599.85492"
         inkscape:connector-curvature="0"
         id="path3661-7-8-8-9-2-9-1-44-5-9-8"
         d="m 450.09113,427.27961 c 23.4258,-3.39896 23.42824,-3.28559 23.42824,-3.28559"
         style="opacity:1;fill:none;fill-rule:evenodd;stroke:#4d4d4d;stroke-width:1.5;stroke-linecap:round;stroke-linejoin:miter;stroke-miterlimit:4;stroke-dasharray:none;stroke-opacity:1" />
      <path
         inkscape:export-ydpi="599.85492"
         inkscape:export-xdpi="599.85492"
         sodipodi:nodetypes="cc"
         inkscape:connector-curvature="0"
         id="path3661-8-54-9-8-5-3-3-9-0-6-1-8"
         d="m 449.24893,423.51133 c 26.37118,-3.82069 24.26279,-3.41789 24.26279,-3.41789"
         style="opacity:1;fill:none;fill-rule:evenodd;stroke:#4d4d4d;stroke-width:1.5;stroke-linecap:round;stroke-linejoin:miter;stroke-miterlimit:4;stroke-dasharray:none;stroke-opacity:1" />
      <path
         inkscape:export-ydpi="599.85492"
         inkscape:export-xdpi="599.85492"
         sodipodi:nodetypes="cc"
         inkscape:connector-curvature="0"
         id="path3661-8-5-2-0-4-0-2-6-6-9-2-6-1"
         d="m 447.44189,419.56212 c 25.49461,-3.83879 23.44612,-3.12706 23.44612,-3.12706"
         style="opacity:1;fill:none;fill-rule:evenodd;stroke:#4d4d4d;stroke-width:1.5;stroke-linecap:round;stroke-linejoin:miter;stroke-miterlimit:4;stroke-dasharray:none;stroke-opacity:1" />
      <path
         inkscape:export-ydpi="599.85492"
         inkscape:export-xdpi="599.85492"
         sodipodi:nodetypes="cc"
         inkscape:connector-curvature="0"
         id="path3661-8-5-3-5-9-7-00-2-8-2-5-3-2-7"
         d="m 445.60448,416.04095 c 26.37117,-3.82069 24.44624,-3.5097 24.44624,-3.5097"
         style="opacity:1;fill:none;fill-rule:evenodd;stroke:#4d4d4d;stroke-width:1.5;stroke-linecap:round;stroke-linejoin:miter;stroke-miterlimit:4;stroke-dasharray:none;stroke-opacity:1" />
      <path
         inkscape:export-ydpi="599.85492"
         inkscape:export-xdpi="599.85492"
         sodipodi:nodetypes="cc"
         inkscape:connector-curvature="0"
         id="path3661-7-8-8-9-22-3-3-6-9-0-7"
         d="m 450.24762,407.82796 c 26.37131,-3.82078 24.47344,-3.49322 24.47344,-3.49322"
         style="opacity:1;fill:none;fill-rule:evenodd;stroke:#4d4d4d;stroke-width:1.5;stroke-linecap:round;stroke-linejoin:miter;stroke-miterlimit:4;stroke-dasharray:none;stroke-opacity:1" />
      <path
         inkscape:export-ydpi="599.85492"
         inkscape:export-xdpi="599.85492"
         sodipodi:nodetypes="cc"
         inkscape:connector-curvature="0"
         id="path3661-8-54-9-8-5-6-0-5-3-1-6-9"
         d="m 448.78304,404.37223 c 24.21086,-3.74491 21.27596,-2.97745 21.27596,-2.97745"
         style="opacity:1;fill:none;fill-rule:evenodd;stroke:#4d4d4d;stroke-width:1.5;stroke-linecap:round;stroke-linejoin:miter;stroke-miterlimit:4;stroke-dasharray:none;stroke-opacity:1" />
      <path
         inkscape:export-ydpi="599.85492"
         inkscape:export-xdpi="599.85492"
         sodipodi:nodetypes="cc"
         inkscape:connector-curvature="0"
         id="path3661-8-5-2-0-4-0-3-3-1-6-5-3-6"
         d="m 445.42004,400.98586 c 26.37117,-3.82077 21.66906,-2.83419 21.66906,-2.83419"
         style="opacity:1;fill:none;fill-rule:evenodd;stroke:#4d4d4d;stroke-width:1.5;stroke-linecap:round;stroke-linejoin:miter;stroke-miterlimit:4;stroke-dasharray:none;stroke-opacity:1" />
      <path
         inkscape:export-ydpi="599.85492"
         inkscape:export-xdpi="599.85492"
         inkscape:connector-curvature="0"
         id="path3661-8-5-3-5-9-7-00-8-8-5-87-4-7-9"
         d="m 441.37199,398.10494 c 26.37118,-3.82069 26.37388,-3.69328 26.37388,-3.69328"
         style="opacity:1;fill:none;fill-rule:evenodd;stroke:#4d4d4d;stroke-width:1.5;stroke-linecap:round;stroke-linejoin:miter;stroke-miterlimit:4;stroke-dasharray:none;stroke-opacity:1" />
      <path
         inkscape:export-ydpi="599.85492"
         inkscape:export-xdpi="599.85492"
         sodipodi:nodetypes="csssssscccccccccssssssc"
         d="m 471.46163,384.96458 c 0.25868,2.72412 -0.57631,8.72607 1.22275,11.17251 2.62556,3.57042 8.06794,3.94431 8.37244,7.92285 0.30321,3.95725 -7.02909,4.46864 -7.05174,8.43105 -0.0206,3.58517 5.52474,4.42717 5.80183,8.0076 0.27567,3.56138 -2.92557,4.93727 -4.48101,8.34631 -1.19071,2.60946 -1.02507,5.6941 0.66035,8.17691 2.23599,3.29387 11.61073,7.54724 11.61073,7.54724 l -4.08384,0.53148 -4.08383,0.53139 -4.08384,0.53148 -4.08371,0.53148 -4.08383,0.53148 -4.08384,0.53147 -4.08383,0.53148 -4.08358,0.53139 c 0,0 -9.53173,-4.23027 -11.87712,-7.53396 -1.74835,-2.46256 -2.05182,-5.54116 -0.92958,-8.16381 1.45004,-3.38861 4.55178,-4.81416 4.2115,-8.33312 -0.34928,-3.61603 -6.02871,-4.37088 -6.07092,-7.99432 -0.0451,-3.91776 7.14259,-4.5076 6.78249,-8.41787 -0.3709,-4.01948 -5.90014,-4.33001 -8.64179,-7.90966 -1.85813,-2.42583 -1.66277,-8.7314 -1.97267,-11.45267"
         style="opacity:1;fill:none;fill-opacity:1;fill-rule:evenodd;stroke:#4d4d4d;stroke-width:2.97411275;stroke-linecap:butt;stroke-linejoin:round;stroke-miterlimit:4;stroke-dasharray:none;stroke-opacity:1"
         id="path3554-3-2-8-1-9-3-8-9-5-6-54-2-5-0"
         inkscape:connector-curvature="0" />
      <path
         inkscape:export-ydpi="599.85492"
         inkscape:export-xdpi="599.85492"
         sodipodi:nodetypes="cc"
         inkscape:connector-curvature="0"
         id="path3661-8-54-9-8-5-5-6-3-8-5-1-6"
         d="m 452.83667,444.79281 c 12.13245,-1.91315 20.81941,-2.91783 20.81941,-2.91783"
         style="opacity:1;fill:none;fill-rule:evenodd;stroke:#4d4d4d;stroke-width:1.5;stroke-linecap:round;stroke-linejoin:miter;stroke-miterlimit:4;stroke-dasharray:none;stroke-opacity:1" />
    </g>
  </g>
</svg>
